<svg width="40" height="40" viewBox="0 0 40 40" fill="none" xmlns="http://www.w3.org/2000/svg">
<path fill-rule="evenodd" clip-rule="evenodd" d="M20 40C31.0457 40 40 31.0457 40 20C40 8.9543 31.0457 0 20 0C8.9543 0 0 8.9543 0 20C0 31.0457 8.9543 40 20 40ZM24.122 10.06C23.056 10.01 22.717 10 20 10C17.283 10 16.944 10.013 15.878 10.06C14.812 10.11 14.088 10.277 13.45 10.525C12.7824 10.7757 12.1777 11.1692 11.678 11.678C11.1688 12.1773 10.7752 12.7822 10.525 13.45C10.277 14.088 10.11 14.812 10.06 15.878C10.01 16.944 10 17.283 10 20C10 22.717 10.013 23.056 10.06 24.122C10.11 25.187 10.277 25.913 10.525 26.55C10.7759 27.2175 11.1694 27.8222 11.678 28.322C12.1775 28.8309 12.7823 29.2245 13.45 29.475C14.088 29.722 14.813 29.89 15.878 29.94C16.944 29.99 17.283 30 20 30C22.717 30 23.056 29.987 24.122 29.94C25.187 29.89 25.913 29.722 26.55 29.475C27.2173 29.2238 27.822 28.8303 28.322 28.322C28.8311 27.8226 29.2247 27.2178 29.475 26.55C29.722 25.912 29.89 25.187 29.94 24.122C29.99 23.056 30 22.717 30 20C30 17.283 29.987 16.944 29.94 15.878C29.89 14.813 29.722 14.087 29.475 13.45C29.224 12.7826 28.8305 12.1779 28.322 11.678C27.766 11.123 27.21 10.779 26.55 10.525C25.912 10.277 25.187 10.11 24.122 10.06ZM16.4645 16.4645C17.4021 15.5268 18.6739 15 20 15C21.3261 15 22.5979 15.5268 23.5355 16.4645C24.4732 17.4021 25 18.6739 25 20C25 21.3261 24.4732 22.5979 23.5355 23.5355C22.5979 24.4732 21.3261 25 20 25C18.6739 25 17.4021 24.4732 16.4645 23.5355C15.5268 22.5979 15 21.3261 15 20C15 18.6739 15.5268 17.4021 16.4645 16.4645ZM26.1339 13.8661C26.3683 14.1005 26.5 14.4185 26.5 14.75C26.5 15.0815 26.3683 15.3995 26.1339 15.6339C25.8995 15.8683 25.5815 16 25.25 16C24.9185 16 24.6005 15.8683 24.3661 15.6339C24.1317 15.3995 24 15.0815 24 14.75C24 14.4185 24.1317 14.1005 24.3661 13.8661C24.6005 13.6317 24.9185 13.5 25.25 13.5C25.5815 13.5 25.8995 13.6317 26.1339 13.8661ZM22.1213 17.8787C21.5587 17.3161 20.7956 17 20 17C19.2044 17 18.4413 17.3161 17.8787 17.8787C17.3161 18.4413 17 19.2044 17 20C17 20.7956 17.3161 21.5587 17.8787 22.1213C18.4413 22.6839 19.2044 23 20 23C20.7956 23 21.5587 22.6839 22.1213 22.1213C22.6839 21.5587 23 20.7956 23 20C23 19.2044 22.6839 18.4413 22.1213 17.8787Z" fill="#F8F5FF"/>
</svg>
