<svg width="60" height="34" viewBox="0 0 60 34" fill="none" xmlns="http://www.w3.org/2000/svg">
<path fill-rule="evenodd" clip-rule="evenodd" d="M29.42 7.1734C29.7499 7.47448 29.6841 8.24273 29.5852 8.51066C29.4863 8.7107 29.0575 8.81092 28.6614 8.74424C28.2331 8.64402 27.8374 9.01097 27.7054 9.61271C27.5737 10.1805 27.8043 10.682 28.2 10.8158C28.6614 10.8825 28.9586 11.584 28.9586 11.8184C28.9917 12.0851 28.6945 12.3862 28.2989 12.4864C27.9032 12.6533 27.7385 13.2211 27.9032 13.7562C28.0683 14.324 28.5298 14.6578 28.9586 14.5244C29.3215 14.3907 29.783 14.4909 29.8815 14.6913C29.9812 14.8922 30.1456 15.6604 29.8488 15.9619C29.5852 16.2953 29.7168 16.8635 30.1129 17.2648C30.5416 17.6317 31.1347 17.6988 31.398 17.3982C31.6963 17.0639 32.4549 17.1642 32.6843 17.2648C32.916 17.3315 33.0149 17.7655 32.916 18.1664C32.8502 18.6008 33.2124 19.0349 33.7728 19.1686C34.334 19.2692 34.8612 19.0348 34.9609 18.6344C35.0587 18.1999 35.7519 17.8653 35.9828 17.8653C36.2134 17.8322 36.5424 18.1332 36.6756 18.5341C36.8073 18.9682 37.3341 19.1355 37.8957 18.9682C38.423 18.7677 38.7856 18.3002 38.6536 17.8989C38.5215 17.498 38.9826 16.83 39.1817 16.6966C39.3464 16.5624 39.7747 16.6626 40.1054 16.9637C40.369 17.2648 40.9621 17.1306 41.3255 16.6966C41.7539 16.2622 41.7866 15.6604 41.4571 15.3929C41.1939 15.0926 41.2254 14.324 41.3255 14.1231C41.4571 13.8895 41.8524 13.7562 42.2484 13.8564C42.6772 13.9562 43.1391 13.5557 43.2049 12.9875C43.3692 12.4197 43.1391 11.8847 42.7091 11.7849C42.3143 11.6838 41.9844 10.9831 41.9513 10.7487C41.9182 10.5151 42.2149 10.214 42.6114 10.0471C43.0071 9.94692 43.2049 9.41225 43.0071 8.81091C42.875 8.24272 42.3486 7.94164 42.0171 8.04227C41.5891 8.17604 40.9294 7.74162 40.797 7.54158C40.6327 7.34113 40.7639 6.90629 41.0607 6.60562C41.3255 6.30495 41.1939 5.70321 40.797 5.30232C40.369 4.93497 39.8074 4.8683 39.5111 5.16897C39.2475 5.47004 38.423 5.43608 38.2256 5.33545C38.0274 5.23563 37.8957 4.80162 37.9946 4.40032C38.0936 3.99903 37.6967 3.53186 37.1367 3.43123C36.5424 3.29787 36.0486 3.53186 35.9166 3.96589C35.8835 4.36718 35.1588 4.70098 34.927 4.73493C34.6965 4.73493 34.4002 4.43386 34.235 4.03257C34.1365 3.63208 33.5749 3.46436 33.0476 3.63207C32.4864 3.79898 32.1574 4.3001 32.289 4.70099C32.3875 5.10188 31.9596 5.70321 31.729 5.87052C31.5639 6.00428 31.1347 5.90366 30.838 5.6034C30.5416 5.33546 29.9477 5.43609 29.5521 5.87052C29.1895 6.30495 29.1233 6.90628 29.42 7.1734V7.1734ZM34.0368 6.87315C36.4766 6.10451 39.0169 7.44093 39.8075 9.88022C40.5996 12.3195 39.2475 14.8922 36.8404 15.694C34.466 16.4622 31.8938 15.1258 31.1347 12.72C30.3434 10.2807 31.6963 7.67453 34.0368 6.87315" fill="#5A27F2"/>
<path fill-rule="evenodd" clip-rule="evenodd" d="M18.0431 14.1902C18.3071 14.4242 18.2413 15.0259 18.1755 15.1257C18.0758 15.3262 17.779 15.3929 17.515 15.3262C17.1855 15.2595 16.8892 15.5602 16.7899 15.9619C16.7237 16.3955 16.8892 16.7964 17.1855 16.8299C17.4823 16.9301 17.7132 17.4317 17.7463 17.5982C17.7463 17.7986 17.5481 17.9995 17.2514 18.0997C16.955 18.1999 16.7899 18.6008 16.9223 19.0017C17.0539 19.4361 17.4161 19.6697 17.7132 19.5695C17.9769 19.4697 18.3071 19.5363 18.3729 19.7036C18.4719 19.8374 18.6035 20.3717 18.3729 20.6392C18.1755 20.8728 18.274 21.2741 18.6035 21.5743C18.9006 21.875 19.2959 21.9085 19.4941 21.6746C19.7247 21.441 20.2859 21.5077 20.4502 21.5408C20.5826 21.641 20.6815 21.9421 20.5826 22.2767C20.5495 22.5434 20.8131 22.8772 21.2415 22.9447C21.6707 23.0445 22.0332 22.9108 22.0994 22.577C22.1984 22.2767 22.6929 22.0423 22.8577 22.0423C23.0559 22.0088 23.2537 22.2096 23.3854 22.5434C23.4512 22.8105 23.8472 22.9108 24.2433 22.8105C24.6386 22.6772 24.9022 22.3434 24.8033 22.0423C24.7375 21.7752 25.0338 21.2741 25.1663 21.1738C25.331 21.0732 25.595 21.1403 25.8587 21.3743C26.0892 21.5408 26.4853 21.5076 26.7493 21.1738C27.0457 20.8728 27.0788 20.4048 26.8813 20.2044C26.65 20.0043 26.7166 19.4361 26.7493 19.2692C26.8482 19.1019 27.1446 19.0017 27.4413 19.1019C27.7712 19.1686 28.0683 18.8679 28.1341 18.4674C28.2331 18.033 28.0683 17.6317 27.7712 17.565C27.474 17.5315 27.2435 16.9972 27.2104 16.7964C27.1777 16.6626 27.4082 16.429 27.7054 16.3288C28.0025 16.2286 28.1014 15.8277 28.0025 15.3929C27.8701 14.9924 27.5406 14.7588 27.2435 14.8586C26.9471 14.9257 26.4853 14.6242 26.3536 14.4909C26.2539 14.324 26.3536 13.9897 26.5511 13.7893C26.7493 13.5557 26.6827 13.1213 26.3536 12.8537C26.0561 12.5531 25.595 12.4864 25.4299 12.7535C25.199 12.9544 24.6386 12.9204 24.4738 12.8537C24.3418 12.7871 24.276 12.4864 24.3418 12.1853C24.3749 11.8847 24.1109 11.5508 23.6817 11.4502C23.2864 11.3835 22.8904 11.5509 22.8246 11.8515C22.7588 12.1522 22.2642 12.3862 22.0664 12.4197C21.9016 12.4529 21.7034 12.2193 21.5714 11.9182C21.5056 11.6171 21.0768 11.4502 20.6815 11.6171C20.3186 11.7182 20.0545 12.0851 20.1203 12.3862C20.2196 12.6868 19.8894 13.1548 19.7578 13.2546C19.593 13.3549 19.3294 13.2882 19.0654 13.0542C18.8671 12.8537 18.4388 12.9544 18.1755 13.2546C17.878 13.5888 17.8122 13.9897 18.0431 14.1902V14.1902ZM21.4397 13.9897C23.2206 13.4215 25.0673 14.3906 25.6281 16.1619C26.1881 17.9324 25.2321 19.8706 23.4843 20.4048C21.7034 21.0069 19.8567 20.0374 19.2959 18.233C18.7024 16.4622 19.692 14.5575 21.4397 13.9897Z" fill="black"/>
<path fill-rule="evenodd" clip-rule="evenodd" d="M19.8892 3.16408C20.0871 3.33098 20.0544 3.79897 19.9555 3.93233C19.9223 4.03255 19.6587 4.13277 19.4609 4.06609C19.1972 4.03255 18.9332 4.26694 18.867 4.60075C18.8008 4.93496 18.9332 5.23562 19.1972 5.3023C19.4282 5.36898 19.5929 5.77028 19.626 5.93718C19.626 6.07135 19.4609 6.23825 19.1972 6.33807C18.9667 6.40515 18.867 6.73936 18.9667 7.07317C19.0652 7.40778 19.3624 7.60783 19.5929 7.50801C19.8234 7.44093 20.0871 7.47446 20.1537 7.60782C20.2195 7.74159 20.3184 8.20956 20.1202 8.37646C19.9555 8.54377 20.0544 8.87759 20.3184 9.14471C20.5494 9.3787 20.8788 9.41223 21.0766 9.21179C21.2414 9.04448 21.7032 9.07763 21.8357 9.14471C21.9673 9.17785 22.0004 9.41224 21.9673 9.67937C21.9015 9.9469 22.132 10.1805 22.4615 10.2472C22.8244 10.3142 23.1216 10.214 23.1547 9.9469C23.2205 9.67937 23.6489 9.51246 23.7805 9.47932C23.9456 9.47932 24.1107 9.64583 24.1765 9.91336C24.2432 10.1473 24.5726 10.2472 24.9021 10.1473C25.1988 10.0471 25.4297 9.74686 25.3308 9.51247C25.2977 9.27889 25.5618 8.87758 25.628 8.8109C25.76 8.74422 26.0232 8.81091 26.188 8.97782C26.3862 9.14472 26.7492 9.07762 26.9797 8.8109C27.1775 8.54377 27.2434 8.20957 27.0128 8.00912C26.8481 7.87495 26.8812 7.40779 26.947 7.24048C27.0128 7.10631 27.2433 7.07318 27.507 7.10632C27.7383 7.1734 28.0024 6.93981 28.0682 6.6056C28.1013 6.27139 28.0024 5.97072 27.771 5.90363C27.507 5.83695 27.3092 5.43607 27.2765 5.26917C27.2765 5.13541 27.4739 4.93494 27.7052 4.86826C27.9358 4.80158 28.0355 4.46738 27.9358 4.13277C27.8372 3.79896 27.5736 3.59851 27.3092 3.66519C27.0786 3.76541 26.7165 3.46435 26.6167 3.39767C26.5509 3.26431 26.6167 3.03072 26.7492 2.82947C26.947 2.62943 26.8812 2.29561 26.6167 2.06122C26.3535 1.82764 26.0232 1.76096 25.8916 1.99454C25.6938 2.16145 25.2319 2.1279 25.1003 2.06122C25.0006 1.99454 24.9021 1.76095 24.9679 1.49302C25.0337 1.25984 24.77 0.992319 24.4737 0.925235C24.1107 0.858554 23.8136 0.992327 23.7478 1.22631C23.6816 1.49304 23.2863 1.69348 23.1216 1.72742C22.9892 1.72742 22.8244 1.52657 22.7255 1.29299C22.6597 1.05941 22.3629 0.95877 22.0004 1.0594C21.7032 1.15962 21.5054 1.4599 21.5712 1.69348C21.6374 1.92788 21.3738 2.32917 21.2414 2.39585C21.1424 2.49567 20.8788 2.39583 20.7141 2.26247C20.5493 2.06122 20.2195 2.12791 19.9555 2.39585C19.7576 2.62943 19.6918 2.99717 19.8892 3.16408V3.16408ZM22.6266 2.99718C24.0449 2.5292 25.5949 3.29784 26.0232 4.76804C26.4851 6.2047 25.7269 7.74159 24.2759 8.20957C22.8575 8.67714 21.3738 7.87496 20.8788 6.4387C20.4169 5.00164 21.2083 3.46435 22.6266 2.99718Z" fill="black"/>
<path d="M2.53997 27.1352C2.78907 27.1352 3.01049 27.1911 3.20423 27.303C3.39797 27.4123 3.55523 27.5648 3.67601 27.7606V25.7775H4.76675V31.3911H3.7213V30.8152C3.56781 31.0618 3.39294 31.2411 3.19668 31.3529C3.00042 31.4648 2.75636 31.5207 2.46449 31.5207C1.9839 31.5207 1.57881 31.325 1.24919 30.9335C0.922094 30.5394 0.758545 30.0347 0.758545 29.4195C0.758545 28.7102 0.919578 28.1521 1.24164 27.7453C1.56622 27.3386 1.999 27.1352 2.53997 27.1352ZM2.77397 30.6055C3.07842 30.6055 3.30991 30.4911 3.46842 30.2623C3.62694 30.0335 3.7062 29.7373 3.7062 29.3737C3.7062 28.8652 3.57913 28.5017 3.325 28.283C3.169 28.1508 2.98784 28.0847 2.78152 28.0847C2.467 28.0847 2.23552 28.2055 2.08707 28.447C1.94113 28.686 1.86816 28.9835 1.86816 29.3394C1.86816 29.7233 1.94239 30.0309 2.09084 30.2623C2.24181 30.4911 2.46952 30.6055 2.77397 30.6055Z" fill="black"/>
<path d="M7.44825 28.0199C7.19915 28.0199 7.00541 28.0987 6.86702 28.2563C6.73115 28.414 6.6456 28.6275 6.61038 28.897H8.28235C8.26474 28.6097 8.17793 28.3924 8.02193 28.2449C7.86844 28.0949 7.67722 28.0199 7.44825 28.0199ZM7.44825 27.1237C7.79044 27.1237 8.09867 27.1886 8.37293 27.3182C8.64719 27.4479 8.87364 27.6525 9.05229 27.9322C9.21332 28.1788 9.31774 28.4648 9.36555 28.7902C9.39322 28.9809 9.40455 29.2555 9.39951 29.614H6.58396C6.59905 30.0309 6.72863 30.3233 6.9727 30.4911C7.12115 30.5953 7.2998 30.6474 7.50864 30.6474C7.73006 30.6474 7.90996 30.5839 8.04835 30.4568C8.12383 30.3881 8.19051 30.2928 8.24838 30.1707H9.34667C9.319 30.4174 9.19193 30.6678 8.96548 30.922C8.61322 31.3262 8.12006 31.5284 7.48599 31.5284C6.96263 31.5284 6.50092 31.358 6.10086 31.0174C5.70079 30.6767 5.50076 30.1224 5.50076 29.3546C5.50076 28.6352 5.68066 28.0835 6.04047 27.6996C6.40279 27.3157 6.87205 27.1237 7.44825 27.1237Z" fill="black"/>
<path d="M11.0431 30.064C11.0657 30.2572 11.1148 30.3945 11.1903 30.4758C11.3237 30.6207 11.5702 30.6932 11.93 30.6932C12.1414 30.6932 12.3087 30.6614 12.432 30.5979C12.5578 30.5343 12.6207 30.439 12.6207 30.3118C12.6207 30.1898 12.5704 30.097 12.4698 30.0335C12.3691 29.9699 11.9955 29.8606 11.3488 29.7055C10.8833 29.5885 10.555 29.4424 10.3637 29.2669C10.1725 29.0941 10.0769 28.8449 10.0769 28.5195C10.0769 28.1356 10.2254 27.8063 10.5223 27.5318C10.8217 27.2547 11.2419 27.1161 11.7828 27.1161C12.2961 27.1161 12.7138 27.2203 13.0359 27.4288C13.3605 27.6347 13.5467 27.9919 13.5945 28.5004H12.5188C12.5037 28.3606 12.4647 28.25 12.4018 28.1686C12.2836 28.0212 12.0823 27.9474 11.7979 27.9474C11.5639 27.9474 11.3966 27.9843 11.296 28.058C11.1978 28.1318 11.1488 28.2182 11.1488 28.3174C11.1488 28.4419 11.2016 28.5322 11.3073 28.5881C11.413 28.6466 11.7866 28.747 12.4282 28.8894C12.856 28.9911 13.1768 29.1449 13.3907 29.3508C13.602 29.5593 13.7077 29.8199 13.7077 30.1326C13.7077 30.5445 13.5555 30.8813 13.251 31.1432C12.9491 31.4025 12.4811 31.5322 11.847 31.5322C11.2004 31.5322 10.7223 31.3949 10.4128 31.1203C10.1058 30.8432 9.95236 30.4911 9.95236 30.064H11.0431Z" fill="black"/>
<path d="M15.691 26.7386H14.6002V25.7356H15.691V26.7386ZM14.6002 27.2343H15.691V31.3911H14.6002V27.2343Z" fill="black"/>
<path d="M18.58 30.4987C18.8317 30.4987 19.0443 30.4034 19.2179 30.2127C19.3915 30.0195 19.4783 29.7131 19.4783 29.2936C19.4783 28.8996 19.3953 28.5996 19.2292 28.3936C19.0657 28.1877 18.8455 28.0847 18.5687 28.0847C18.1913 28.0847 17.9309 28.264 17.7875 28.6224C17.712 28.8131 17.6742 29.0483 17.6742 29.328C17.6742 29.5695 17.7145 29.7843 17.795 29.9724C17.9409 30.3233 18.2026 30.4987 18.58 30.4987ZM18.3121 27.1352C18.5184 27.1352 18.6983 27.1669 18.8518 27.2305C19.1135 27.3398 19.3248 27.5407 19.4859 27.833V27.2343H20.5313V31.1775C20.5313 31.714 20.442 32.1182 20.2633 32.3902C19.9564 32.858 19.3676 33.0919 18.497 33.0919C17.9711 33.0919 17.5421 32.9877 17.21 32.7792C16.8779 32.5707 16.6942 32.2593 16.659 31.8449H17.829C17.8592 31.972 17.9082 32.0635 17.9762 32.1195C18.0919 32.2186 18.2869 32.2682 18.5612 32.2682C18.9487 32.2682 19.2078 32.1373 19.3387 31.8754C19.4242 31.7076 19.467 31.4254 19.467 31.0288V30.7618C19.3638 30.9398 19.2531 31.0733 19.1349 31.1623C18.921 31.3275 18.6429 31.4101 18.3008 31.4101C17.7724 31.4101 17.3497 31.2233 17.0326 30.8496C16.7181 30.4733 16.5608 29.9648 16.5608 29.3241C16.5608 28.7063 16.7131 28.1877 17.0175 27.7682C17.322 27.3462 17.7535 27.1352 18.3121 27.1352Z" fill="black"/>
<path d="M23.8959 27.1352C24.3212 27.1352 24.6684 27.2483 24.9376 27.4746C25.2094 27.6983 25.3452 28.0708 25.3452 28.5919V31.3911H24.2432V28.8627C24.2432 28.6441 24.2142 28.4763 24.1564 28.3593C24.0507 28.1458 23.8494 28.039 23.5525 28.039C23.1876 28.039 22.9373 28.1953 22.8014 28.508C22.731 28.6733 22.6957 28.8843 22.6957 29.1411V31.3911H21.6239V27.2419H22.6618V27.8483C22.8002 27.6347 22.931 27.4809 23.0543 27.3869C23.2757 27.2191 23.5563 27.1352 23.8959 27.1352Z" fill="black"/>
<path d="M29.4854 30.064C29.508 30.2572 29.5571 30.3945 29.6326 30.4758C29.7659 30.6207 30.0125 30.6932 30.3723 30.6932C30.5837 30.6932 30.751 30.6614 30.8743 30.5979C31.0001 30.5343 31.063 30.439 31.063 30.3118C31.063 30.1898 31.0127 30.097 30.912 30.0335C30.8114 29.9699 30.4377 29.8606 29.7911 29.7055C29.3256 29.5885 28.9973 29.4424 28.806 29.2669C28.6148 29.0941 28.5192 28.8449 28.5192 28.5195C28.5192 28.1356 28.6676 27.8063 28.9645 27.5318C29.264 27.2547 29.6842 27.1161 30.2251 27.1161C30.7384 27.1161 31.1561 27.2203 31.4782 27.4288C31.8027 27.6347 31.9889 27.9919 32.0367 28.5004H30.9611C30.946 28.3606 30.907 28.25 30.8441 28.1686C30.7258 28.0212 30.5245 27.9474 30.2402 27.9474C30.0062 27.9474 29.8389 27.9843 29.7383 28.058C29.6401 28.1318 29.5911 28.2182 29.5911 28.3174C29.5911 28.4419 29.6439 28.5322 29.7496 28.5881C29.8553 28.6466 30.2289 28.747 30.8705 28.8894C31.2983 28.9911 31.6191 29.1449 31.8329 29.3508C32.0443 29.5593 32.15 29.8199 32.15 30.1326C32.15 30.5445 31.9977 30.8813 31.6933 31.1432C31.3914 31.4025 30.9234 31.5322 30.2893 31.5322C29.6426 31.5322 29.1646 31.3949 28.8551 31.1203C28.5481 30.8432 28.3946 30.4911 28.3946 30.064H29.4854Z" fill="black"/>
<path d="M33.1935 32.1881L33.3293 32.1957C33.435 32.2008 33.5357 32.197 33.6313 32.1843C33.7269 32.1716 33.8074 32.1423 33.8728 32.0966C33.9357 32.0534 33.9936 31.9631 34.0464 31.8258C34.1018 31.6885 34.1244 31.6046 34.1144 31.5741L32.6047 27.2343H33.8011L34.6994 30.3004L35.5486 27.2343H36.6922L35.2806 31.3224C35.0089 32.1106 34.7937 32.5987 34.6352 32.7868C34.4767 32.9775 34.1597 33.0728 33.6841 33.0728C33.5885 33.0728 33.5118 33.0716 33.4539 33.069C33.396 33.069 33.3092 33.0652 33.1935 33.0576V32.1881Z" fill="black"/>
<path d="M38.2452 30.064C38.2678 30.2572 38.3169 30.3945 38.3924 30.4758C38.5257 30.6207 38.7723 30.6932 39.1321 30.6932C39.3435 30.6932 39.5108 30.6614 39.6341 30.5979C39.7599 30.5343 39.8228 30.439 39.8228 30.3118C39.8228 30.1898 39.7725 30.097 39.6718 30.0335C39.5712 29.9699 39.1975 29.8606 38.5509 29.7055C38.0854 29.5885 37.757 29.4424 37.5658 29.2669C37.3746 29.0941 37.279 28.8449 37.279 28.5195C37.279 28.1356 37.4274 27.8063 37.7243 27.5318C38.0237 27.2547 38.4439 27.1161 38.9849 27.1161C39.4982 27.1161 39.9159 27.2203 40.2379 27.4288C40.5625 27.6347 40.7487 27.9919 40.7965 28.5004H39.7209C39.7058 28.3606 39.6668 28.25 39.6039 28.1686C39.4856 28.0212 39.2843 27.9474 39 27.9474C38.766 27.9474 38.5987 27.9843 38.498 28.058C38.3999 28.1318 38.3508 28.2182 38.3508 28.3174C38.3508 28.4419 38.4037 28.5322 38.5094 28.5881C38.615 28.6466 38.9887 28.747 39.6303 28.8894C40.058 28.9911 40.3789 29.1449 40.5927 29.3508C40.8041 29.5593 40.9098 29.8199 40.9098 30.1326C40.9098 30.5445 40.7575 30.8813 40.4531 31.1432C40.1511 31.4025 39.6831 31.5322 39.0491 31.5322C38.4024 31.5322 37.9244 31.3949 37.6149 31.1203C37.3079 30.8432 37.1544 30.4911 37.1544 30.064H38.2452Z" fill="black"/>
<path d="M41.3645 28.0466V27.2725H41.9382V26.1131H43.0025V27.2725H43.6705V28.0466H43.0025V30.2432C43.0025 30.4135 43.0239 30.5203 43.0666 30.5635C43.1094 30.6042 43.2402 30.6246 43.4592 30.6246C43.4919 30.6246 43.5258 30.6246 43.5611 30.6246C43.5988 30.622 43.6353 30.6195 43.6705 30.6169V31.4292L43.161 31.4483C42.6527 31.4661 42.3055 31.3771 42.1193 31.1813C41.9985 31.0568 41.9382 30.8648 41.9382 30.6055V28.0466H41.3645Z" fill="black"/>
<path d="M46.0614 28.0199C45.8123 28.0199 45.6186 28.0987 45.4802 28.2563C45.3443 28.414 45.2587 28.6275 45.2235 28.897H46.8955C46.8779 28.6097 46.7911 28.3924 46.6351 28.2449C46.4816 28.0949 46.2904 28.0199 46.0614 28.0199ZM46.0614 27.1237C46.4036 27.1237 46.7118 27.1886 46.9861 27.3182C47.2603 27.4479 47.4868 27.6525 47.6654 27.9322C47.8265 28.1788 47.9309 28.4648 47.9787 28.7902C48.0064 28.9809 48.0177 29.2555 48.0127 29.614H45.1971C45.2122 30.0309 45.3418 30.3233 45.5858 30.4911C45.7343 30.5953 45.9129 30.6474 46.1218 30.6474C46.3432 30.6474 46.5231 30.5839 46.6615 30.4568C46.737 30.3881 46.8037 30.2928 46.8615 30.1707H47.9598C47.9321 30.4174 47.8051 30.6678 47.5786 30.922C47.2264 31.3262 46.7332 31.5284 46.0991 31.5284C45.5758 31.5284 45.1141 31.358 44.714 31.0174C44.3139 30.6767 44.1139 30.1224 44.1139 29.3546C44.1139 28.6352 44.2938 28.0835 44.6536 27.6996C45.0159 27.3157 45.4852 27.1237 46.0614 27.1237Z" fill="black"/>
<path d="M53.4154 27.1428C53.5965 27.1428 53.7752 27.1784 53.9513 27.2496C54.1274 27.3208 54.2872 27.4453 54.4306 27.6233C54.5464 27.7682 54.6244 27.9462 54.6646 28.1572C54.6898 28.297 54.7024 28.5017 54.7024 28.7712L54.6948 31.3911H53.5927V28.7445C53.5927 28.5869 53.5676 28.4572 53.5173 28.3555C53.4217 28.1623 53.2455 28.0657 52.9889 28.0657C52.692 28.0657 52.4869 28.1902 52.3737 28.4394C52.3158 28.5716 52.2869 28.7305 52.2869 28.9161V31.3911H51.2037V28.9161C51.2037 28.6695 51.1785 28.4902 51.1282 28.3784C51.0376 28.1775 50.8602 28.0771 50.596 28.0771C50.2891 28.0771 50.0827 28.1775 49.9771 28.3784C49.9192 28.4928 49.8903 28.6631 49.8903 28.8894V31.3911H48.7995V27.2419H49.845V27.8483C49.9783 27.6322 50.1041 27.4784 50.2224 27.3869C50.4312 27.2241 50.7017 27.1428 51.0338 27.1428C51.3484 27.1428 51.6025 27.2127 51.7962 27.3525C51.9522 27.4822 52.0705 27.6487 52.151 27.8521C52.2919 27.608 52.4668 27.4288 52.6756 27.3144C52.897 27.2 53.1436 27.1428 53.4154 27.1428Z" fill="black"/>
<path d="M56.6101 30.064C56.6328 30.2572 56.6819 30.3945 56.7573 30.4758C56.8907 30.6207 57.1373 30.6932 57.4971 30.6932C57.7084 30.6932 57.8758 30.6614 57.9991 30.5979C58.1249 30.5343 58.1878 30.439 58.1878 30.3118C58.1878 30.1898 58.1374 30.097 58.0368 30.0335C57.9362 29.9699 57.5625 29.8606 56.9159 29.7055C56.4504 29.5885 56.122 29.4424 55.9308 29.2669C55.7396 29.0941 55.6439 28.8449 55.6439 28.5195C55.6439 28.1356 55.7924 27.8063 56.0893 27.5318C56.3887 27.2547 56.8089 27.1161 57.3499 27.1161C57.8632 27.1161 58.2809 27.2203 58.6029 27.4288C58.9275 27.6347 59.1137 27.9919 59.1615 28.5004H58.0859C58.0708 28.3606 58.0318 28.25 57.9689 28.1686C57.8506 28.0212 57.6493 27.9474 57.365 27.9474C57.131 27.9474 56.9637 27.9843 56.863 28.058C56.7649 28.1318 56.7158 28.2182 56.7158 28.3174C56.7158 28.4419 56.7687 28.5322 56.8743 28.5881C56.98 28.6466 57.3537 28.747 57.9953 28.8894C58.423 28.9911 58.7438 29.1449 58.9577 29.3508C59.1691 29.5593 59.2747 29.8199 59.2747 30.1326C59.2747 30.5445 59.1225 30.8813 58.8181 31.1432C58.5161 31.4025 58.0481 31.5322 57.4141 31.5322C56.7674 31.5322 56.2893 31.3949 55.9799 31.1203C55.6729 30.8432 55.5194 30.4911 55.5194 30.064H56.6101Z" fill="black"/>
</svg>
