<svg width="24" height="24" viewBox="0 0 24 24" fill="none" xmlns="http://www.w3.org/2000/svg">
<path fill-rule="evenodd" clip-rule="evenodd" d="M17.7793 19.2131C15.9081 20.6731 13.5403 21.5452 10.9652 21.5452C4.90927 21.5452 0 16.7222 0 10.7726C0 4.82306 4.90927 0 10.9652 0C17.021 0 21.9303 4.82306 21.9303 10.7726C21.9303 13.5175 20.8854 16.0226 19.165 17.9249L24.0002 22.6753L22.6518 24L17.7793 19.2131ZM19.9303 10.7726C19.9303 15.5843 15.95 19.5452 10.9652 19.5452C5.98029 19.5452 2 15.5843 2 10.7726C2 5.96089 5.98029 2 10.9652 2C15.95 2 19.9303 5.96089 19.9303 10.7726Z" fill="black"/>
</svg>
