<svg width="82" height="61" viewBox="0 0 82 61" fill="none" xmlns="http://www.w3.org/2000/svg">
<path fill-rule="evenodd" clip-rule="evenodd" d="M50.7558 22.6481C46.5558 22.6481 43.151 26.0529 43.151 30.2529C43.151 34.4529 46.5558 37.8576 50.7558 37.8576C54.9558 37.8576 58.3606 34.4529 58.3606 30.2529C58.3606 26.0529 54.9558 22.6481 50.7558 22.6481ZM42.2004 30.2529C42.2004 25.5279 46.0308 21.6975 50.7558 21.6975C55.4808 21.6975 59.3112 25.5279 59.3112 30.2529C59.3112 34.9779 55.4808 38.8082 50.7558 38.8082C46.0308 38.8082 42.2004 34.9779 42.2004 30.2529Z" fill="#845EF7"/>
<path fill-rule="evenodd" clip-rule="evenodd" d="M50.9937 1.26218C49.6876 1.26218 48.4351 1.78099 47.5116 2.70448C46.5881 3.62798 46.0693 4.8805 46.0693 6.18651V6.64559L46.0693 6.64749C46.0655 7.60939 45.7805 8.54918 45.2493 9.35117C44.7182 10.1532 43.9642 10.7823 43.0801 11.1613C43.0207 11.1867 42.9569 11.1998 42.8923 11.1998H42.7741C41.8975 11.5651 40.9332 11.6697 39.9973 11.5C39.0276 11.3242 38.1328 10.8619 37.4283 10.1728L37.4245 10.1691L37.2625 10.0071C36.8052 9.54921 36.2619 9.18581 35.6641 8.93799C35.0663 8.69018 34.4255 8.56262 33.7783 8.56262C33.1312 8.56262 32.4904 8.69018 31.8926 8.93799C31.2948 9.18581 30.7517 9.54902 30.2944 10.0069L30.294 10.0072C29.8362 10.4646 29.4729 11.0077 29.2251 11.6055C28.9773 12.2033 28.8498 12.8441 28.8498 13.4912C28.8498 14.1383 28.9773 14.7791 29.2251 15.3769C29.4729 15.9747 29.8362 16.5178 30.294 16.9752L30.4599 17.1411C31.1491 17.8456 31.6113 18.7404 31.7872 19.7101C31.9621 20.6749 31.8455 21.6698 31.4524 22.5678C31.1098 23.4907 30.4988 24.2901 29.6979 24.8629C28.8929 25.4386 27.9333 25.7589 26.9439 25.7821L26.9327 25.7822H26.6897C25.3837 25.7822 24.1311 26.301 23.2077 27.2245C22.2842 28.148 21.7654 29.4005 21.7654 30.7065C21.7654 32.0125 22.2842 33.2651 23.2077 34.1886C24.1311 35.112 25.3837 35.6309 26.6897 35.6309H27.1507C28.1126 35.6347 29.0524 35.9197 29.8543 36.4508C30.6556 36.9815 31.2844 37.7347 31.6635 38.6178C32.0605 39.5188 32.1789 40.518 32.0032 41.4869C31.8274 42.4566 31.3651 43.3514 30.676 44.0559L30.6723 44.0596L30.5102 44.2217C30.0524 44.679 29.689 45.2223 29.4412 45.8201C29.1934 46.4179 29.0658 47.0587 29.0658 47.7058C29.0658 48.3529 29.1934 48.9937 29.4412 49.5915C29.689 50.1893 30.0522 50.7324 30.51 51.1898L30.5104 51.1901C30.9678 51.648 31.5109 52.0112 32.1087 52.259C32.7065 52.5068 33.3472 52.6344 33.9944 52.6344C34.6415 52.6344 35.2823 52.5068 35.8801 52.259C36.4779 52.0112 37.021 51.648 37.4783 51.1901L37.6443 51.0242C38.3488 50.3351 39.2436 49.8728 40.2133 49.697C41.1781 49.5221 42.173 49.6387 43.071 50.0317C43.9939 50.3744 44.7932 50.9854 45.3661 51.7863C45.9418 52.5913 46.2621 53.5509 46.2852 54.5403L46.2854 54.5514V54.7945C46.2854 56.1005 46.8042 57.353 47.7277 58.2765C48.6512 59.2 49.9037 59.7188 51.2097 59.7188C52.5157 59.7188 53.7682 59.2 54.6917 58.2765C55.6152 57.353 56.134 56.1005 56.134 54.7945V54.3354L56.134 54.3335C56.1379 53.3716 56.4229 52.4318 56.954 51.6298C57.4846 50.8286 58.2377 50.1998 59.1207 49.8208C60.0218 49.4236 61.0211 49.3053 61.9901 49.481C62.9598 49.6568 63.8546 50.1191 64.5591 50.8082L64.5628 50.8119L64.7248 50.9739C65.1822 51.4318 65.7254 51.7952 66.3233 52.043C66.9211 52.2908 67.5618 52.4184 68.209 52.4184C68.8561 52.4184 69.4969 52.2908 70.0947 52.043C70.6925 51.7952 71.2356 51.432 71.6929 50.9741L71.6933 50.9737C72.1512 50.5164 72.5144 49.9733 72.7622 49.3755C73.01 48.7777 73.1376 48.1369 73.1376 47.4898C73.1376 46.8426 73.01 46.2019 72.7622 45.604C72.5144 45.0062 72.1512 44.4631 71.6933 44.0058L71.5274 43.8399C70.8383 43.1354 70.376 42.2405 70.2002 41.2709C70.0245 40.3019 70.1429 39.3026 70.54 38.4015C70.9191 37.5185 71.5478 36.7654 72.349 36.2348C73.151 35.7037 74.0908 35.4187 75.0527 35.4148L75.0546 35.4148L75.2976 35.4148C76.6037 35.4148 77.8562 34.896 78.7797 33.9725C79.7032 33.049 80.222 31.7965 80.222 30.4905C80.222 29.1845 79.7032 27.932 78.7797 27.0085C77.8562 26.085 76.6037 25.5662 75.2976 25.5662H74.8386L74.8367 25.5662C73.8748 25.5623 72.935 25.2773 72.133 24.7462C71.331 24.2151 70.7018 23.461 70.3229 22.5769C70.2975 22.5176 70.2843 22.4537 70.2843 22.3892V22.271C69.9191 21.3943 69.8144 20.43 69.9841 19.4941C70.16 18.5244 70.6222 17.6296 71.3114 16.9251L71.315 16.9213L71.4771 16.7593C71.9349 16.302 72.2983 15.7587 72.5462 15.1609C72.794 14.5631 72.9215 13.9223 72.9215 13.2752C72.9215 12.628 72.794 11.9873 72.5462 11.3894C72.2983 10.7916 71.9351 10.2485 71.4773 9.79121L71.4769 9.79083C71.0196 9.33298 70.4765 8.96977 69.8787 8.72196C69.2809 8.47414 68.6401 8.34659 67.9929 8.34659C67.3458 8.34659 66.705 8.47414 66.1072 8.72196C65.5094 8.96977 64.9663 9.33298 64.509 9.79083L64.343 9.95676C63.6385 10.6459 62.7437 11.1082 61.774 11.284C60.8052 11.4597 59.8059 11.3413 58.9049 10.9442C58.0218 10.5652 57.2686 9.93642 56.738 9.13514C56.2069 8.33315 55.9218 7.39336 55.918 6.43145L55.918 6.42955V6.18651C55.918 4.8805 55.3992 3.62798 54.4757 2.70448C53.5522 1.78099 52.2997 1.26218 50.9937 1.26218ZM46.8377 2.03054C47.9399 0.92831 49.4349 0.309082 50.9937 0.309082C52.5525 0.309082 54.0474 0.92831 55.1496 2.03054C56.2519 3.13277 56.8711 4.62772 56.8711 6.18651L56.8711 6.42765C56.8711 6.42795 56.8711 6.42824 56.8711 6.42854C56.8744 7.20426 57.1043 7.96212 57.5326 8.60888C57.9611 9.2559 58.5694 9.7635 59.2827 10.0692L59.2874 10.0712C60.0148 10.3922 60.8217 10.488 61.604 10.3462C62.3855 10.2045 63.1067 9.83216 63.6748 9.27715C63.6754 9.27657 63.676 9.27599 63.6766 9.27541L63.8347 9.11727C63.8347 9.1172 63.8346 9.11733 63.8347 9.11727C64.3805 8.57089 65.0288 8.13725 65.7422 7.84151C66.4557 7.54573 67.2206 7.39349 67.9929 7.39349C68.7653 7.39349 69.5301 7.54573 70.2436 7.84151C70.957 8.13722 71.6051 8.5706 72.1508 9.11689C72.6973 9.66274 73.1308 10.311 73.4266 11.0245C73.7224 11.738 73.8746 12.5028 73.8746 13.2752C73.8746 14.0476 73.7224 14.8124 73.4266 15.5259C73.1308 16.2394 72.6973 16.8876 72.1508 17.4335L71.9927 17.5916C71.9921 17.5922 71.9915 17.5928 71.9909 17.5934C71.4359 18.1615 71.0636 18.8827 70.9219 19.6641C70.7801 20.4465 70.8758 21.2533 71.1969 21.9807C71.2236 22.0413 71.2374 22.1069 71.2374 22.1731V22.2885C71.5464 22.9642 72.0387 23.5406 72.6592 23.9515C73.306 24.3799 74.0639 24.6098 74.8396 24.6131H75.2976C76.8564 24.6131 78.3514 25.2323 79.4536 26.3345C80.5558 27.4368 81.1751 28.9317 81.1751 30.4905C81.1751 32.0493 80.5558 33.5442 79.4536 34.6465C78.3514 35.7487 76.8564 36.3679 75.2976 36.3679L75.0565 36.3679C75.0562 36.3679 75.0559 36.3679 75.0556 36.3679C74.2799 36.3712 73.522 36.6011 72.8753 37.0294C72.2283 37.4579 71.7207 38.0663 71.4149 38.7795L71.4129 38.7842C71.0919 39.5116 70.9961 40.3185 71.138 41.1008C71.2797 41.8822 71.6519 42.6034 72.2068 43.1714C72.2075 43.1721 72.2081 43.1727 72.2087 43.1734L72.3669 43.3315C72.367 43.3315 72.3668 43.3314 72.3669 43.3315C72.9133 43.8773 73.3469 44.5256 73.6426 45.2391C73.9384 45.9526 74.0907 46.7174 74.0907 47.4898C74.0907 48.2622 73.9384 49.027 73.6426 49.7405C73.3469 50.4539 72.9135 51.1021 72.3671 51.6479C71.8213 52.1942 71.1731 52.6277 70.4597 52.9234C69.7462 53.2192 68.9814 53.3715 68.209 53.3715C67.4366 53.3715 66.6718 53.2192 65.9583 52.9234C65.2448 52.6277 64.5967 52.1942 64.0509 51.6479C64.0508 51.6478 64.0509 51.6479 64.0509 51.6479L63.8926 51.4895C63.8919 51.4889 63.8913 51.4883 63.8907 51.4876C63.3226 50.9327 62.6014 50.5605 61.82 50.4188C61.0377 50.2769 60.2308 50.3727 59.5034 50.6937L59.4988 50.6958C58.7855 51.0015 58.1771 51.509 57.7487 52.1561C57.3203 52.8028 57.0904 53.5607 57.0871 54.3364C57.0871 54.3367 57.0871 54.337 57.0871 54.3373L57.0871 54.7945C57.0871 56.3533 56.4679 57.8482 55.3657 58.9504C54.2634 60.0527 52.7685 60.6719 51.2097 60.6719C49.6509 60.6719 48.156 60.0527 47.0537 58.9504C45.9515 57.8482 45.3323 56.3533 45.3323 54.7945V54.5571C45.3126 53.7608 45.0543 52.9887 44.5908 52.3407C44.1263 51.6913 43.4772 51.1966 42.7278 50.921C42.7228 50.9192 42.7177 50.9172 42.7127 50.9152C42.7084 50.9134 42.7042 50.9116 42.6999 50.9097C41.9725 50.5887 41.1657 50.4929 40.3833 50.6348C39.6019 50.7765 38.8807 51.1488 38.3126 51.7037C38.312 51.7044 38.3114 51.705 38.3108 51.7056L38.1527 51.8637C37.6068 52.4102 36.9586 52.8437 36.2451 53.1395C35.5316 53.4352 34.7668 53.5875 33.9944 53.5875C33.222 53.5875 32.4572 53.4352 31.7437 53.1395C31.0302 52.8437 30.382 52.4102 29.8361 51.8637C29.2898 51.3179 28.8564 50.6699 28.5607 49.9565C28.2649 49.243 28.1127 48.4782 28.1127 47.7058C28.1127 46.9334 28.2649 46.1686 28.5607 45.4551C28.8565 44.7417 29.2899 44.0935 29.8363 43.5477C29.8363 43.5476 29.8362 43.5478 29.8363 43.5477L29.9946 43.3894C29.9952 43.3888 29.9958 43.3882 29.9964 43.3876C30.5514 42.8195 30.9237 42.0983 31.0654 41.3168C31.2072 40.5345 31.1115 39.7276 30.7905 39.0003L30.7884 38.9956C30.4827 38.2823 29.9751 37.674 29.3281 37.2455C28.6813 36.8172 27.9235 36.5872 27.1477 36.584C27.1475 36.584 27.1472 36.584 27.1469 36.584L26.6897 36.584C25.1309 36.584 23.6359 35.9647 22.5337 34.8625C21.4315 33.7603 20.8123 32.2653 20.8123 30.7065C20.8123 29.1477 21.4315 27.6528 22.5337 26.5506C23.6359 25.4483 25.1309 24.8291 26.6897 24.8291H26.927C27.7233 24.8094 28.4954 24.5511 29.1434 24.0877C29.7928 23.6232 30.2875 22.974 30.5631 22.2247C30.5666 22.2152 30.5704 22.2059 30.5744 22.1967C30.8954 21.4694 30.9912 20.6625 30.8494 19.8802C30.7077 19.0987 30.3353 18.3775 29.7804 17.8094L29.6204 17.6495C29.074 17.1036 28.6405 16.4554 28.3447 15.7419C28.0489 15.0284 27.8967 14.2636 27.8967 13.4912C27.8967 12.7188 28.0489 11.954 28.3447 11.2405C28.6405 10.527 29.074 9.87878 29.6204 9.33293C30.1662 8.78664 30.8143 8.35326 31.5276 8.05755C32.2412 7.76177 33.006 7.60953 33.7783 7.60953C34.5507 7.60953 35.3155 7.76177 36.0291 8.05755C36.7425 8.35329 37.3906 8.78674 37.9364 9.33311C37.9365 9.33318 37.9364 9.33305 37.9364 9.33311L38.0966 9.49326C38.6647 10.0482 39.3858 10.4205 40.1673 10.5622C40.9496 10.7041 41.7565 10.6083 42.4839 10.2873C42.5445 10.2605 42.61 10.2467 42.6763 10.2467H42.7916C43.4674 9.93777 44.0438 9.44546 44.4547 8.82492C44.883 8.17815 45.113 7.42029 45.1162 6.64458V6.18651C45.1162 4.62772 45.7355 3.13277 46.8377 2.03054Z" fill="#845EF7"/>
<path fill-rule="evenodd" clip-rule="evenodd" d="M14.3831 43.8545C12.6607 43.2276 10.7563 44.1156 10.1294 45.838C9.50246 47.5604 10.3905 49.4649 12.1129 50.0918C13.8353 50.7187 15.7398 49.8306 16.3667 48.1082C16.9936 46.3858 16.1055 44.4814 14.3831 43.8545ZM9.73952 45.6961C10.4448 43.7584 12.5873 42.7594 14.525 43.4646C16.4627 44.1699 17.4618 46.3124 16.7565 48.2501C16.0512 50.1878 13.9087 51.1869 11.971 50.4816C10.0333 49.7763 9.03426 47.6338 9.73952 45.6961Z" fill="#845EF7"/>
<path fill-rule="evenodd" clip-rule="evenodd" d="M17.6729 35.1198C17.1373 34.9248 16.5462 34.9506 16.0296 35.1915C15.5131 35.4324 15.1133 35.8686 14.9184 36.4042L14.8499 36.5924L14.8496 36.5932C14.7045 36.9871 14.4473 37.33 14.1098 37.5796C13.7723 37.8292 13.3691 37.9747 12.95 37.9981C12.9219 37.9997 12.8937 37.9955 12.8673 37.9859L12.8188 37.9683C12.4047 37.9872 11.9937 37.8862 11.6352 37.6769C11.2638 37.46 10.9658 37.1369 10.7798 36.7491L10.7788 36.7471L10.7365 36.6564C10.6173 36.4004 10.4488 36.1703 10.2406 35.9794C10.0324 35.7886 9.7887 35.6406 9.52331 35.544C9.25793 35.4474 8.9761 35.4041 8.69396 35.4165C8.41182 35.4289 8.13488 35.4968 7.87899 35.6163C7.62297 35.7355 7.39274 35.9041 7.20189 36.1123C7.01103 36.3204 6.86308 36.5642 6.76649 36.8296C6.6699 37.095 6.62656 37.3768 6.63896 37.6589C6.65135 37.9411 6.71924 38.218 6.83874 38.4739L6.88202 38.5667C7.05947 38.9585 7.11548 39.3944 7.04285 39.8183C6.97058 40.2401 6.77427 40.6307 6.47904 40.9403C6.20077 41.2676 5.83088 41.5042 5.41694 41.6196C5.00088 41.7356 4.55956 41.7237 4.15034 41.5855L4.14576 41.5839L4.04609 41.5476C3.5105 41.3527 2.91941 41.3785 2.40285 41.6193C1.88629 41.8602 1.48658 42.2964 1.29164 42.832C1.0967 43.3676 1.12251 43.9587 1.36338 44.4752C1.60426 44.9918 2.04047 45.3915 2.57606 45.5865L2.7651 45.6553C3.159 45.8004 3.50186 46.0576 3.75147 46.3951C4.00087 46.7323 4.1463 47.135 4.16993 47.5538C4.19828 47.9825 4.09766 48.41 3.88101 48.7811C3.66417 49.1525 3.34103 49.4504 2.95326 49.6365L2.95119 49.6375L2.86056 49.6797C2.60454 49.7989 2.37442 49.9675 2.18356 50.1757C1.99271 50.3838 1.84475 50.6276 1.74816 50.893C1.65157 51.1583 1.60823 51.4402 1.62063 51.7223C1.63303 52.0045 1.70091 52.2814 1.82041 52.5373C1.93962 52.7933 2.10823 53.0235 2.31639 53.2144C2.52456 53.4052 2.7683 53.5532 3.03369 53.6498C3.29907 53.7464 3.58089 53.7897 3.86304 53.7773C4.14518 53.7649 4.42212 53.697 4.67801 53.5775L4.77082 53.5343C5.16259 53.3568 5.59855 53.3008 6.02246 53.3734C6.44421 53.4457 6.8348 53.642 7.1444 53.9372C7.47174 54.2155 7.70835 54.5854 7.82372 54.9993C7.93968 55.4154 7.92779 55.8567 7.7896 56.2659L7.78799 56.2705L7.75171 56.3702C7.55677 56.9058 7.58258 57.4969 7.82346 58.0134C8.06433 58.53 8.50054 58.9297 9.03613 59.1246C9.57172 59.3196 10.1628 59.2938 10.6794 59.0529C11.1959 58.812 11.5956 58.3758 11.7906 57.8402L11.8591 57.652L11.8594 57.6512C12.0045 57.2573 12.2617 56.9144 12.5992 56.6648C12.9364 56.4154 13.3391 56.27 13.7578 56.2464C14.1866 56.218 14.6141 56.3186 14.9852 56.5353C15.3566 56.7521 15.6546 57.0752 15.8406 57.463L15.8416 57.4651L15.8839 57.5557C16.0031 57.8117 16.1716 58.0419 16.3798 58.2327C16.588 58.4236 16.8317 58.5715 17.0971 58.6681C17.3625 58.7647 17.6443 58.808 17.9264 58.7956C18.2086 58.7832 18.4855 58.7154 18.7414 58.5959C18.9974 58.4766 19.2277 58.308 19.4185 58.0999C19.6094 57.8917 19.7573 57.648 19.8539 57.3826C19.9505 57.1172 19.9938 56.8354 19.9814 56.5532C19.969 56.2711 19.9012 55.9942 19.7817 55.7383L19.7384 55.6455C19.5609 55.2537 19.5049 54.8177 19.5775 54.3938C19.6501 53.9702 19.8478 53.5781 20.1452 53.2679C20.4324 52.9623 20.8027 52.7473 21.2105 52.6493C21.6186 52.5512 22.0466 52.5746 22.4416 52.7166L22.4424 52.7169L22.5421 52.7532C23.0776 52.9481 23.6687 52.9223 24.1853 52.6814C24.7019 52.4405 25.1016 52.0043 25.2965 51.4687C25.4914 50.9331 25.4656 50.3421 25.2248 49.8255C24.9839 49.3089 24.5477 48.9092 24.0121 48.7143L23.8238 48.6458L23.823 48.6455C23.4292 48.5003 23.0863 48.2432 22.8367 47.9057C22.5871 47.5681 22.4416 47.165 22.4182 46.7459C22.4166 46.7178 22.4207 46.6896 22.4304 46.6631L22.448 46.6147C22.4291 46.2006 22.5301 45.7896 22.7394 45.4311C22.9562 45.0597 23.2794 44.7617 23.6671 44.5757L23.6692 44.5747L23.7598 44.5324C24.0159 44.4132 24.246 44.2447 24.4368 44.0365C24.6277 43.8283 24.7756 43.5846 24.8722 43.3192C24.9688 43.0538 25.0122 42.772 24.9998 42.4898C24.9874 42.2077 24.9195 41.9308 24.8 41.6749C24.6808 41.4188 24.5122 41.1886 24.304 40.9978C24.0958 40.8069 23.8521 40.659 23.5867 40.5624C23.3213 40.4658 23.0395 40.4224 22.7574 40.4348C22.4752 40.4472 22.1983 40.5151 21.9424 40.6346L21.8496 40.6779C21.4578 40.8554 21.0218 40.9114 20.5979 40.8387C20.1744 40.7662 19.7823 40.5685 19.4721 40.2712C19.1665 39.9839 18.9514 39.6136 18.8534 39.2058C18.7553 38.7976 18.7787 38.3697 18.9207 37.9747L18.921 37.9739L18.9573 37.8742C19.1522 37.3386 19.1264 36.7475 18.8855 36.231C18.6447 35.7144 18.2084 35.3147 17.6729 35.1198ZM15.8538 34.8145C16.4704 34.527 17.1759 34.4962 17.8151 34.7289C18.4544 34.9616 18.975 35.4387 19.2625 36.0552C19.55 36.6717 19.5808 37.3772 19.3481 38.0165L19.3121 38.1154C19.3121 38.1155 19.3122 38.1152 19.3121 38.1154C19.1977 38.434 19.1787 38.7794 19.2579 39.1086C19.337 39.4379 19.5107 39.7369 19.7576 39.9687L19.7592 39.9702C20.0096 40.2104 20.3262 40.3702 20.6682 40.4288C21.0098 40.4873 21.3611 40.4423 21.677 40.2994C21.6773 40.2993 21.6776 40.2991 21.678 40.299L21.7664 40.2577C21.7664 40.2577 21.7664 40.2578 21.7664 40.2577C22.0718 40.1151 22.4024 40.0341 22.7391 40.0193C23.0759 40.0045 23.4122 40.0562 23.729 40.1715C24.0457 40.2868 24.3366 40.4634 24.5851 40.6912C24.8335 40.9189 25.0346 41.1934 25.1769 41.4989C25.3195 41.8043 25.4005 42.1348 25.4153 42.4716C25.4301 42.8083 25.3784 43.1447 25.2631 43.4614C25.1478 43.7782 24.9712 44.0691 24.7434 44.3176C24.5156 44.566 24.2411 44.7672 23.9355 44.9094L23.8471 44.9507C23.8467 44.9508 23.8464 44.951 23.846 44.9512C23.5337 45.1013 23.2733 45.3415 23.0986 45.6408C22.9236 45.9404 22.8425 46.2856 22.8656 46.6318C22.8675 46.6607 22.8634 46.6896 22.8535 46.7168L22.8363 46.7641C22.8621 47.0873 22.978 47.3972 23.1711 47.6583C23.3724 47.9305 23.6489 48.1379 23.9665 48.2551L24.1544 48.3234C24.7936 48.5561 25.3142 49.0332 25.6017 49.6497C25.8892 50.2663 25.92 50.9717 25.6874 51.611C25.4547 52.2502 24.9776 52.7709 24.3611 53.0584C23.7445 53.3459 23.0391 53.3767 22.3998 53.144L22.3009 53.108C22.3008 53.108 22.301 53.1081 22.3009 53.108C21.9823 52.9936 21.6368 52.9746 21.3077 53.0537C20.9784 53.1329 20.6794 53.3066 20.4476 53.5535L20.4461 53.5551C20.2058 53.8055 20.0461 54.1221 19.9875 54.4641C19.929 54.8057 19.974 55.157 20.1168 55.4727C20.1169 55.4731 20.1171 55.4735 20.1173 55.4738L20.1585 55.5623C20.1585 55.5623 20.1585 55.5622 20.1585 55.5623C20.3011 55.8677 20.3822 56.1983 20.397 56.535C20.4118 56.8717 20.3601 57.2081 20.2448 57.5248C20.1295 57.8416 19.9529 58.1325 19.7251 58.381C19.4973 58.6294 19.2228 58.8305 18.9173 58.9728C18.6119 59.1154 18.2814 59.1964 17.9447 59.2112C17.6079 59.226 17.2716 59.1743 16.9548 59.059C16.6381 58.9437 16.3472 58.7671 16.0987 58.5393C15.8503 58.3115 15.6492 58.037 15.5069 57.7315C15.5069 57.7315 15.5069 57.7315 15.5069 57.7315L15.4656 57.6429C15.4654 57.6426 15.4653 57.6422 15.4651 57.6419C15.315 57.3295 15.0748 57.0692 14.7755 56.8945C14.4758 56.7195 14.1306 56.6384 13.7844 56.6614L13.7822 56.6616C13.4441 56.6805 13.1188 56.7978 12.8465 56.9992C12.5743 57.2005 12.3669 57.477 12.2498 57.7946C12.2498 57.7947 12.2498 57.7945 12.2498 57.7946L12.1814 57.9825C11.9488 58.6217 11.4717 59.1424 10.8552 59.4299C10.2386 59.7174 9.53312 59.7482 8.89387 59.5155C8.25462 59.2828 7.73398 58.8057 7.44649 58.1892C7.15899 57.5727 7.12819 56.8672 7.36085 56.2279L7.39628 56.1306C7.50705 55.8011 7.51639 55.4459 7.42305 55.111C7.3295 54.7753 7.13713 54.4756 6.87096 54.2507C6.86916 54.2492 6.86738 54.2476 6.86564 54.2461C6.86413 54.2447 6.86265 54.2433 6.86119 54.2419C6.61081 54.0017 6.29421 53.842 5.95222 53.7834C5.61059 53.7249 5.25928 53.7699 4.94348 53.9127C4.94313 53.9128 4.94279 53.913 4.94244 53.9132L4.854 53.9544C4.54858 54.097 4.21805 54.1781 3.8813 54.1929C3.54454 54.2077 3.20818 54.1559 2.89143 54.0406C2.57468 53.9254 2.28376 53.7488 2.0353 53.521C1.78685 53.2932 1.58572 53.0186 1.44344 52.7131C1.30087 52.4077 1.21988 52.0772 1.20509 51.7406C1.19029 51.4038 1.24202 51.0675 1.3573 50.7507C1.47259 50.434 1.64918 50.143 1.87698 49.8946C2.10475 49.6461 2.37924 49.445 2.68478 49.3028C2.68481 49.3027 2.68474 49.3028 2.68478 49.3028L2.77333 49.2615C2.77367 49.2613 2.774 49.2612 2.77433 49.261C3.08672 49.1109 3.34705 48.8707 3.5218 48.5714C3.69675 48.2717 3.77791 47.9265 3.75483 47.5803L3.75468 47.5781C3.73578 47.2399 3.61843 46.9147 3.41705 46.6424C3.21575 46.3702 2.93928 46.1628 2.62165 46.0457C2.62153 46.0456 2.62177 46.0457 2.62165 46.0457L2.4338 45.9773C1.79455 45.7446 1.27391 45.2676 0.986413 44.651C0.698917 44.0345 0.668114 43.329 0.900782 42.6897C1.13345 42.0505 1.61053 41.5299 2.22707 41.2424C2.8436 40.9549 3.5491 40.9241 4.18835 41.1567L4.28568 41.1922C4.61518 41.3029 4.97037 41.3123 5.30527 41.2189C5.64093 41.1254 5.94068 40.933 6.16556 40.6668C6.16839 40.6635 6.17132 40.6602 6.17435 40.6571C6.41457 40.4067 6.57428 40.0901 6.63288 39.7481C6.69141 39.4065 6.64638 39.0551 6.50358 38.7393L6.46186 38.6499C6.31924 38.3445 6.23821 38.0139 6.22341 37.6772C6.20862 37.3404 6.26034 37.0041 6.37563 36.6873C6.49092 36.3706 6.66751 36.0796 6.8953 35.8312C7.1231 35.5827 7.39763 35.3816 7.70321 35.2393C8.00857 35.0968 8.33903 35.0158 8.6757 35.001C9.01245 34.9862 9.34882 35.0379 9.66557 35.1532C9.98232 35.2685 10.2732 35.4451 10.5217 35.6729C10.7701 35.9006 10.9712 36.1751 11.1135 36.4807C11.1135 36.4807 11.1135 36.4806 11.1135 36.4807L11.1553 36.5702C11.3054 36.8826 11.5456 37.1429 11.8449 37.3177C12.1446 37.4926 12.4898 37.5738 12.836 37.5507C12.8648 37.5488 12.8938 37.5529 12.9209 37.5628L12.9682 37.58C13.2915 37.5542 13.6013 37.4383 13.8625 37.2452C14.1346 37.0439 14.3421 36.7674 14.4592 36.4498L14.5276 36.2619C14.7602 35.6227 15.2373 35.102 15.8538 34.8145Z" fill="#845EF7"/>
<path d="M19.3121 38.1154L19.3481 38.0165C19.5808 37.3772 19.55 36.6717 19.2625 36.0552C18.975 35.4387 18.4544 34.9616 17.8151 34.7289C17.1759 34.4962 16.4704 34.527 15.8538 34.8145C15.2373 35.102 14.7602 35.6227 14.5276 36.2619L14.4592 36.4498C14.3421 36.7674 14.1346 37.0439 13.8625 37.2452C13.6013 37.4383 13.2915 37.5542 12.9682 37.58L12.9209 37.5628C12.8938 37.5529 12.8648 37.5488 12.836 37.5507C12.4898 37.5738 12.1446 37.4926 11.8449 37.3177C11.5456 37.1429 11.3054 36.8826 11.1553 36.5702L11.1135 36.4807M19.3121 38.1154C19.3122 38.1152 19.3121 38.1155 19.3121 38.1154ZM19.3121 38.1154C19.1977 38.434 19.1787 38.7794 19.2579 39.1086C19.337 39.4379 19.5107 39.7369 19.7576 39.9687L19.7592 39.9702C20.0096 40.2104 20.3262 40.3702 20.6682 40.4288C21.0098 40.4873 21.3611 40.4423 21.677 40.2994C21.6773 40.2993 21.6776 40.2991 21.678 40.299L21.7664 40.2577M21.7664 40.2577C21.7664 40.2578 21.7664 40.2577 21.7664 40.2577ZM21.7664 40.2577C22.0718 40.1151 22.4024 40.0341 22.7391 40.0193C23.0759 40.0045 23.4122 40.0562 23.729 40.1715C24.0457 40.2868 24.3366 40.4634 24.5851 40.6912C24.8335 40.9189 25.0346 41.1934 25.1769 41.4989C25.3195 41.8043 25.4005 42.1348 25.4153 42.4716C25.4301 42.8083 25.3784 43.1447 25.2631 43.4614C25.1478 43.7782 24.9712 44.0691 24.7434 44.3176C24.5156 44.566 24.2411 44.7672 23.9355 44.9094L23.8471 44.9507C23.8467 44.9508 23.8464 44.951 23.846 44.9512C23.5337 45.1013 23.2733 45.3415 23.0986 45.6408C22.9236 45.9404 22.8425 46.2856 22.8656 46.6318C22.8675 46.6607 22.8634 46.6896 22.8535 46.7168L22.8363 46.7641C22.8621 47.0873 22.978 47.3972 23.1711 47.6583C23.3724 47.9305 23.6489 48.1379 23.9665 48.2551L24.1544 48.3234C24.7936 48.5561 25.3142 49.0332 25.6017 49.6497C25.8892 50.2663 25.92 50.9717 25.6874 51.611C25.4547 52.2502 24.9776 52.7709 24.3611 53.0584C23.7445 53.3459 23.0391 53.3767 22.3998 53.144L22.3009 53.108M22.3009 53.108C22.301 53.1081 22.3008 53.108 22.3009 53.108ZM22.3009 53.108C21.9823 52.9936 21.6368 52.9746 21.3077 53.0537C20.9784 53.1329 20.6794 53.3066 20.4476 53.5535L20.4461 53.5551C20.2058 53.8055 20.0461 54.1221 19.9875 54.4641C19.929 54.8057 19.974 55.157 20.1168 55.4727C20.1169 55.4731 20.1171 55.4735 20.1173 55.4738L20.1585 55.5623M20.1585 55.5623C20.1585 55.5622 20.1585 55.5623 20.1585 55.5623ZM20.1585 55.5623C20.3011 55.8677 20.3822 56.1983 20.397 56.535C20.4118 56.8717 20.3601 57.2081 20.2448 57.5248C20.1295 57.8416 19.9529 58.1325 19.7251 58.381C19.4973 58.6294 19.2228 58.8305 18.9173 58.9728M18.9173 58.9728C18.6119 59.1154 18.2814 59.1964 17.9447 59.2112C17.6079 59.226 17.2716 59.1743 16.9548 59.059C16.6381 58.9437 16.3472 58.7671 16.0987 58.5393C15.8503 58.3115 15.6492 58.037 15.5069 57.7315M18.9173 58.9728C18.9173 58.9728 18.9173 58.9728 18.9173 58.9728ZM18.9173 58.9728L18.8294 58.7843M15.5069 57.7315C15.5069 57.7315 15.5069 57.7315 15.5069 57.7315ZM15.5069 57.7315L15.4656 57.6429C15.4654 57.6426 15.4653 57.6422 15.4651 57.6419C15.315 57.3295 15.0748 57.0692 14.7755 56.8945C14.4758 56.7195 14.1306 56.6384 13.7844 56.6614L13.7822 56.6616C13.4441 56.6805 13.1188 56.7978 12.8465 56.9992C12.5743 57.2005 12.3669 57.477 12.2498 57.7946M12.2498 57.7946C12.2498 57.7945 12.2498 57.7947 12.2498 57.7946ZM12.2498 57.7946L12.1814 57.9825C11.9488 58.6217 11.4717 59.1424 10.8552 59.4299C10.2386 59.7174 9.53312 59.7482 8.89387 59.5155C8.25462 59.2828 7.73398 58.8057 7.44649 58.1892C7.15899 57.5727 7.12819 56.8672 7.36085 56.2279L7.39628 56.1306C7.50705 55.8011 7.51639 55.4459 7.42305 55.111C7.3295 54.7753 7.13713 54.4756 6.87096 54.2507C6.86916 54.2492 6.86738 54.2476 6.86564 54.2461C6.86413 54.2447 6.86265 54.2433 6.86119 54.2419C6.61081 54.0017 6.29421 53.842 5.95222 53.7834C5.61059 53.7249 5.25928 53.7699 4.94348 53.9127C4.94313 53.9128 4.94279 53.913 4.94244 53.9132L4.854 53.9544C4.54858 54.097 4.21805 54.1781 3.8813 54.1929C3.54454 54.2077 3.20818 54.1559 2.89143 54.0406C2.57468 53.9254 2.28376 53.7488 2.0353 53.521C1.78685 53.2932 1.58572 53.0186 1.44344 52.7131C1.30087 52.4077 1.21988 52.0772 1.20509 51.7406C1.19029 51.4038 1.24202 51.0675 1.3573 50.7507C1.47259 50.434 1.64918 50.143 1.87698 49.8946C2.10475 49.6461 2.37924 49.445 2.68478 49.3028M2.68478 49.3028C2.68474 49.3028 2.68481 49.3027 2.68478 49.3028ZM2.68478 49.3028L2.77333 49.2615C2.77367 49.2613 2.774 49.2612 2.77433 49.261C3.08672 49.1109 3.34705 48.8707 3.5218 48.5714C3.69675 48.2717 3.77791 47.9265 3.75483 47.5803L3.75468 47.5781C3.73578 47.2399 3.61843 46.9147 3.41705 46.6424C3.21575 46.3702 2.93928 46.1628 2.62165 46.0457M2.62165 46.0457C2.62177 46.0457 2.62153 46.0456 2.62165 46.0457ZM2.62165 46.0457L2.4338 45.9773C1.79455 45.7446 1.27391 45.2676 0.986413 44.651C0.698917 44.0345 0.668114 43.329 0.900782 42.6897C1.13345 42.0505 1.61053 41.5299 2.22707 41.2424C2.8436 40.9549 3.5491 40.9241 4.18835 41.1567L4.28568 41.1922C4.61518 41.3029 4.97037 41.3123 5.30527 41.2189C5.64093 41.1254 5.94068 40.933 6.16556 40.6668C6.16839 40.6635 6.17132 40.6602 6.17435 40.6571C6.41457 40.4067 6.57428 40.0901 6.63288 39.7481C6.69141 39.4065 6.64638 39.0551 6.50358 38.7393L6.46186 38.6499C6.31924 38.3445 6.23821 38.0139 6.22341 37.6772C6.20862 37.3404 6.26034 37.0041 6.37563 36.6873C6.49092 36.3706 6.66751 36.0796 6.8953 35.8312C7.1231 35.5827 7.39763 35.3816 7.70321 35.2393C8.00857 35.0968 8.33903 35.0158 8.6757 35.001C9.01245 34.9862 9.34882 35.0379 9.66557 35.1532C9.98232 35.2685 10.2732 35.4451 10.5217 35.6729C10.7701 35.9006 10.9712 36.1751 11.1135 36.4807M11.1135 36.4807C11.1135 36.4806 11.1135 36.4807 11.1135 36.4807ZM10.1294 45.838C10.7563 44.1156 12.6607 43.2276 14.3831 43.8545C16.1055 44.4814 16.9936 46.3858 16.3667 48.1082C15.7398 49.8306 13.8353 50.7187 12.1129 50.0918C10.3905 49.4649 9.50246 47.5604 10.1294 45.838ZM14.525 43.4646C12.5873 42.7594 10.4448 43.7584 9.73952 45.6961C9.03426 47.6338 10.0333 49.7763 11.971 50.4816C13.9087 51.1869 16.0512 50.1878 16.7565 48.2501C17.4618 46.3124 16.4627 44.1699 14.525 43.4646ZM16.0296 35.1915C16.5462 34.9506 17.1373 34.9248 17.6729 35.1198C18.2084 35.3147 18.6447 35.7144 18.8855 36.231C19.1264 36.7475 19.1522 37.3386 18.9573 37.8742L18.921 37.9739L18.9207 37.9747C18.7787 38.3697 18.7553 38.7976 18.8534 39.2058C18.9514 39.6136 19.1665 39.9839 19.4721 40.2712C19.7823 40.5685 20.1744 40.7662 20.5979 40.8387C21.0218 40.9114 21.4578 40.8554 21.8496 40.6779L21.9424 40.6346C22.1983 40.5151 22.4752 40.4472 22.7574 40.4348C23.0395 40.4224 23.3213 40.4658 23.5867 40.5624C23.8521 40.659 24.0958 40.8069 24.304 40.9978C24.5122 41.1886 24.6808 41.4188 24.8 41.6749C24.9195 41.9308 24.9874 42.2077 24.9998 42.4898C25.0122 42.772 24.9688 43.0538 24.8722 43.3192C24.7756 43.5846 24.6277 43.8283 24.4368 44.0365C24.246 44.2447 24.0159 44.4132 23.7598 44.5324L23.6692 44.5747L23.6671 44.5757C23.2794 44.7617 22.9562 45.0597 22.7394 45.4311C22.5301 45.7896 22.4291 46.2006 22.448 46.6147L22.4304 46.6631C22.4207 46.6896 22.4166 46.7178 22.4182 46.7459C22.4416 47.165 22.5871 47.5681 22.8367 47.9057C23.0863 48.2432 23.4292 48.5003 23.823 48.6455L23.8238 48.6458L24.0121 48.7143C24.5477 48.9092 24.9839 49.3089 25.2248 49.8255C25.4656 50.3421 25.4914 50.9331 25.2965 51.4687C25.1016 52.0043 24.7019 52.4405 24.1853 52.6814C23.6687 52.9223 23.0776 52.9481 22.5421 52.7532L22.4424 52.7169L22.4416 52.7166C22.0466 52.5746 21.6186 52.5512 21.2105 52.6493C20.8027 52.7473 20.4324 52.9623 20.1452 53.2679C19.8478 53.5781 19.6501 53.9702 19.5775 54.3938C19.5049 54.8177 19.5609 55.2537 19.7384 55.6455L19.7817 55.7383C19.9012 55.9942 19.969 56.2711 19.9814 56.5532C19.9938 56.8354 19.9505 57.1172 19.8539 57.3826C19.7573 57.648 19.6094 57.8917 19.4185 58.0999C19.2277 58.308 18.9974 58.4766 18.7414 58.5959C18.4855 58.7154 18.2086 58.7832 17.9264 58.7956C17.6443 58.808 17.3625 58.7647 17.0971 58.6681C16.8317 58.5715 16.588 58.4236 16.3798 58.2327C16.1716 58.0419 16.0031 57.8117 15.8839 57.5557L15.8416 57.4651L15.8406 57.463C15.6546 57.0752 15.3566 56.7521 14.9852 56.5353C14.6141 56.3186 14.1866 56.218 13.7578 56.2464C13.3391 56.27 12.9364 56.4154 12.5992 56.6648C12.2617 56.9144 12.0045 57.2573 11.8594 57.6512L11.8591 57.652L11.7906 57.8402C11.5956 58.3758 11.1959 58.812 10.6794 59.0529C10.1628 59.2938 9.57172 59.3196 9.03613 59.1246C8.50054 58.9297 8.06433 58.53 7.82346 58.0134C7.58258 57.4969 7.55677 56.9058 7.75171 56.3702L7.78799 56.2705L7.7896 56.2659C7.92779 55.8567 7.93968 55.4154 7.82372 54.9993C7.70835 54.5854 7.47174 54.2155 7.1444 53.9372C6.8348 53.642 6.44421 53.4457 6.02246 53.3734C5.59855 53.3008 5.16259 53.3568 4.77082 53.5343L4.67801 53.5775C4.42212 53.697 4.14518 53.7649 3.86304 53.7773C3.58089 53.7897 3.29907 53.7464 3.03369 53.6498C2.7683 53.5532 2.52456 53.4052 2.31639 53.2144C2.10823 53.0235 1.93962 52.7933 1.82041 52.5373C1.70091 52.2814 1.63303 52.0045 1.62063 51.7223C1.60823 51.4402 1.65157 51.1583 1.74816 50.893C1.84475 50.6276 1.99271 50.3838 2.18356 50.1757C2.37442 49.9675 2.60454 49.7989 2.86056 49.6797L2.95119 49.6375L2.95326 49.6365C3.34103 49.4504 3.66417 49.1525 3.88101 48.7811C4.09766 48.41 4.19828 47.9825 4.16993 47.5538C4.1463 47.135 4.00087 46.7323 3.75147 46.3951C3.50186 46.0576 3.159 45.8004 2.7651 45.6553L2.57606 45.5865C2.04047 45.3915 1.60426 44.9918 1.36338 44.4752C1.12251 43.9587 1.0967 43.3676 1.29164 42.832C1.48658 42.2964 1.88629 41.8602 2.40285 41.6193C2.91941 41.3785 3.5105 41.3527 4.04609 41.5476L4.14576 41.5839L4.15034 41.5855C4.55956 41.7237 5.00088 41.7356 5.41694 41.6196C5.83088 41.5042 6.20077 41.2676 6.47904 40.9403C6.77427 40.6307 6.97058 40.2401 7.04285 39.8183C7.11548 39.3944 7.05947 38.9585 6.88202 38.5667L6.83874 38.4739C6.71924 38.218 6.65135 37.9411 6.63896 37.6589C6.62656 37.3768 6.6699 37.095 6.76649 36.8296C6.86308 36.5642 7.01103 36.3204 7.20189 36.1123C7.39274 35.9041 7.62297 35.7355 7.87899 35.6163C8.13488 35.4968 8.41182 35.4289 8.69396 35.4165C8.9761 35.4041 9.25793 35.4474 9.52331 35.544C9.7887 35.6406 10.0324 35.7886 10.2406 35.9794C10.4488 36.1703 10.6173 36.4004 10.7365 36.6564L10.7788 36.7471L10.7798 36.7491C10.9658 37.1369 11.2638 37.46 11.6352 37.6769C11.9937 37.8862 12.4047 37.9872 12.8188 37.9683L12.8673 37.9859C12.8937 37.9955 12.9219 37.9997 12.95 37.9981C13.3691 37.9747 13.7723 37.8292 14.1098 37.5796C14.4473 37.33 14.7045 36.9871 14.8496 36.5932L14.8499 36.5924L14.9184 36.4042C15.1133 35.8686 15.5131 35.4324 16.0296 35.1915Z" stroke="#845EF7" stroke-width="0.446492" stroke-linecap="round" stroke-linejoin="round"/>
</svg>
