<svg width="55" height="61" viewBox="0 0 55 61" fill="none" xmlns="http://www.w3.org/2000/svg">
<path fill-rule="evenodd" clip-rule="evenodd" d="M13.9003 7.15847C14.0245 6.94192 14.2996 6.86761 14.5148 6.99248L40.8342 22.2614C41.0494 22.3862 41.1233 22.663 40.9992 22.8795C40.8751 23.0961 40.5999 23.1704 40.3847 23.0455L14.0653 7.77666C13.8501 7.65179 13.7762 7.37501 13.9003 7.15847Z" fill="#845EF7"/>
<path fill-rule="evenodd" clip-rule="evenodd" d="M24.2215 0.866409C25.2032 0.298811 26.3166 0 27.45 0C28.5834 0 29.6968 0.298811 30.6785 0.866409C30.6788 0.866589 30.6791 0.866769 30.6794 0.86695L51.6706 12.8845C52.6515 13.4519 53.4662 14.2678 54.033 15.2502C54.5998 16.2327 54.8988 17.3472 54.9 18.4819V42.5181C54.8988 43.6528 54.5998 44.7673 54.033 45.7498C53.4662 46.7322 52.6515 47.5481 51.6706 48.1155L51.6688 48.1165L30.6794 60.1331C30.6792 60.1332 30.6791 60.1332 30.6789 60.1333C29.6972 60.7011 28.5836 61 27.45 61C26.3164 61 25.2028 60.7011 24.2211 60.1333C24.2209 60.1332 24.2208 60.1332 24.2206 60.1331L3.23119 48.1165L3.22941 48.1155C2.24852 47.5481 1.43379 46.7322 0.866973 45.7498C0.300151 44.7673 0.00116175 43.6528 0 42.5181V18.4819C0.00116175 17.3472 0.30015 16.2327 0.866973 15.2502C1.43379 14.2678 2.24852 13.4519 3.22941 12.8845L3.23119 12.8835L24.2206 0.86695C24.2209 0.866769 24.2212 0.866589 24.2215 0.866409ZM27.45 0.924429C26.4782 0.924429 25.5235 1.18072 24.6819 1.66753L24.6802 1.66855L3.69076 13.6851C3.69044 13.6853 3.69013 13.6855 3.68982 13.6856C2.84947 14.172 2.15148 14.871 1.66581 15.7128C1.18 16.5549 0.923726 17.5101 0.922689 18.4827V42.5173C0.923726 43.4899 1.18 44.4451 1.66581 45.2872C2.15145 46.1289 2.84939 46.828 3.68968 47.3143C3.69004 47.3145 3.6904 47.3147 3.69076 47.3149L24.6819 59.3325C25.5235 59.8193 26.4782 60.0756 27.45 60.0756C28.4218 60.0756 29.3765 59.8193 30.2181 59.3325L30.2198 59.3314L51.2092 47.3149C51.2096 47.3147 51.21 47.3145 51.2103 47.3143C52.0506 46.828 52.7485 46.1289 53.2342 45.2872C53.72 44.4451 53.9763 43.4898 53.9773 42.5171V18.4829C53.9763 17.5102 53.72 16.5549 53.2342 15.7128C52.7485 14.871 52.0505 14.172 51.2102 13.6856C51.2099 13.6855 51.2096 13.6853 51.2092 13.6851L30.2198 1.66855L30.2181 1.66753C29.3765 1.18072 28.4218 0.924429 27.45 0.924429Z" fill="#845EF7"/>
<path fill-rule="evenodd" clip-rule="evenodd" d="M0.984129 15.4753C1.11006 15.2596 1.38864 15.1859 1.60634 15.3107L27.2195 29.9897L52.8326 15.3107C53.0503 15.1859 53.3289 15.2596 53.4548 15.4753C53.5808 15.691 53.5064 15.967 53.2887 16.0918L27.4475 30.9015C27.3064 30.9823 27.1325 30.9823 26.9915 30.9015L1.15029 16.0918C0.932588 15.967 0.858194 15.691 0.984129 15.4753Z" fill="#845EF7"/>
<path fill-rule="evenodd" clip-rule="evenodd" d="M27.2194 30.0378C27.4742 30.0378 27.6807 30.2401 27.6807 30.4896V60.0861C27.6807 60.3356 27.4742 60.5378 27.2194 60.5378C26.9646 60.5378 26.7581 60.3356 26.7581 60.0861V30.4896C26.7581 30.2401 26.9646 30.0378 27.2194 30.0378Z" fill="#845EF7"/>
</svg>
